<svg xmlns="http://www.w3.org/2000/svg" width="88" height="26" viewBox="0 0 88 26">
    <g fill="none" fill-rule="evenodd">
        <g fill="#FFF" fill-rule="nonzero">
            <g>
                <g transform="translate(-299 -10) translate(162 10) translate(137)">
                    <path d="M39.904 6.326v11.721c.014.117-.026.233-.108.317-.083.083-.198.124-.315.111h-1.458c-.117.013-.233-.028-.316-.111-.082-.083-.123-.2-.11-.317v-.612c-.64.814-1.6 1.303-2.906 1.303-2.39 0-4.363-2.061-4.363-4.738 0-2.676 1.973-4.738 4.363-4.738 1.307 0 2.266.49 2.905 1.303v-4.24c-.012-.116.029-.233.111-.316.083-.083.2-.124.316-.112h1.458c.117-.013.232.029.315.112.082.083.122.2.108.317zm-2.308 7.665c.032-.91-.433-1.767-1.214-2.232-.78-.464-1.751-.464-2.532 0-.78.465-1.246 1.321-1.214 2.232-.032.911.434 1.767 1.214 2.232.78.465 1.752.465 2.532 0s1.246-1.321 1.214-2.232zM48.29 9.482c.117-.013.232.028.315.112.082.083.122.2.109.317v8.136c.013.117-.027.233-.11.317-.082.083-.197.124-.314.111H46.83c-.116.013-.232-.028-.315-.111-.082-.084-.122-.2-.108-.317v-.483c-.503.761-1.325 1.165-2.436 1.165-1.666 0-2.911-1.285-2.911-3.487v-5.32c-.013-.116.028-.233.11-.316.083-.083.2-.124.316-.111h1.45c.116-.013.232.028.315.111.082.083.123.2.11.317v5.142c0 1.03.61 1.53 1.42 1.53.913 0 1.616-.527 1.616-1.882v-4.79c-.013-.117.027-.233.11-.317.082-.083.197-.124.314-.111h1.461l.01-.013zM57.55 18.488h-1.702c-.204.01-.398-.09-.512-.26l-2.938-3.803v3.622c.013.117-.028.234-.11.317-.084.083-.2.124-.316.111h-1.459c-.116.013-.232-.028-.315-.111-.083-.083-.124-.2-.111-.317V6.326c-.013-.117.028-.234.11-.317.084-.083.2-.124.316-.112h1.459c.116-.012.232.029.315.112.083.083.124.2.111.317v7.133l2.762-3.695c.112-.17.305-.27.508-.26h1.715c.35 0 .466.23.255.517l-3.017 3.933 3.173 4.026c.231.275.112.508-.244.508zM62.313 9.253c1.976 0 3.654 1.18 3.654 3.524v5.27c.013.117-.027.233-.11.317-.082.083-.197.124-.314.111h-1.407c-.116.013-.232-.028-.315-.111-.083-.083-.124-.2-.11-.317v-.336c-.515.63-1.292 1.018-2.437 1.018-1.592 0-3.014-.939-3.014-2.826s1.422-2.83 3.014-2.83c.883-.048 1.752.237 2.436.799v-.96c0-1.065-.536-1.512-1.385-1.512-.676 0-1.176.285-1.328.771-.091.242-.186.382-.441.382H59.12c-.12.015-.24-.029-.322-.117-.084-.087-.12-.21-.1-.33.221-1.834 1.79-2.853 3.626-2.853h-.012zm1.385 6.653c0-.694-.627-1.12-1.641-1.12s-1.492.471-1.492 1.12c0 .648.475 1.12 1.492 1.12s1.641-.475 1.641-1.12zM71.067 9.253c1.976 0 3.654 1.18 3.654 3.524v5.27c.014.117-.027.233-.109.317-.082.083-.198.124-.314.111H72.89c-.117.013-.233-.028-.316-.111-.082-.083-.123-.2-.11-.317v-.336c-.515.63-1.292 1.018-2.436 1.018-1.596 0-3.018-.939-3.018-2.826s1.422-2.83 3.018-2.83c.882-.049 1.751.236 2.435.799v-.96c0-1.065-.535-1.512-1.385-1.512-.676 0-1.175.285-1.328.771-.09.242-.185.382-.441.382h-1.431c-.12.016-.241-.027-.325-.115-.084-.088-.122-.211-.102-.331.223-1.835 1.79-2.854 3.627-2.854h-.012zm1.385 6.653c0-.694-.624-1.12-1.64-1.12-1.018 0-1.493.471-1.493 1.12 0 .648.475 1.12 1.492 1.12s1.641-.475 1.641-1.12zM80.622 9.253c1.666 0 2.908 1.285 2.908 3.487v5.307c.014.117-.026.233-.109.317-.082.083-.198.124-.314.111h-1.462c-.116.013-.232-.028-.314-.111-.083-.084-.123-.2-.11-.317v-5.13c0-1.03-.608-1.529-1.418-1.529-.914 0-1.617.526-1.617 1.881v4.778c.013.117-.028.234-.111.317-.083.083-.199.124-.315.111H76.3c-.116.013-.232-.028-.315-.111-.083-.083-.124-.2-.111-.317V9.923c-.013-.117.028-.234.11-.317.084-.083.2-.124.316-.111h1.459c.116-.013.232.028.315.111.083.083.124.2.111.317v.495c.502-.761 1.322-1.165 2.436-1.165z"/>
                    <ellipse cx="12.813" cy="12.872" opacity=".3" rx="12.813" ry="12.872"/>
                    <path d="M17.868 6.118H7.756c-.984 0-1.782.8-1.782 1.79v9.931c0 .988.798 1.79 1.782 1.79h10.112c.984 0 1.781-.802 1.781-1.79V7.901c-.003-.986-.8-1.783-1.781-1.783zm-5.055 7.922c-2.495-.01-4.567-1.937-4.768-4.435-.04-.538.361-1.007.897-1.048.535-.04 1.002.363 1.042.9.11 1.489 1.343 2.64 2.828 2.64 1.485 0 2.718-1.151 2.827-2.64.024-.399.288-.743.666-.869.378-.126.795-.008 1.051.298.17.196.254.453.232.713-.2 2.501-2.277 4.43-4.775 4.435v.006zM85.637 5.004c-1.234 0-2.235 1.005-2.235 2.245 0 1.24 1 2.246 2.235 2.246 1.234 0 2.235-1.006 2.235-2.246s-1-2.245-2.235-2.245zm0 .346c1.043.005 1.885.858 1.882 1.905-.003 1.048-.85 1.896-1.894 1.894-1.043-.002-1.888-.852-1.888-1.9 0-.505.2-.99.556-1.347.357-.357.84-.555 1.344-.552zm-.682.862v2.074h.344v-.761h.448l.48.761h.345l-.5-.789c.053-.011.105-.025.156-.043.093-.029.176-.082.243-.153.059-.056.1-.128.12-.208.017-.073.027-.148.03-.223-.004-.076-.014-.152-.03-.226-.022-.078-.063-.148-.12-.205-.064-.075-.149-.13-.243-.156-.125-.053-.26-.077-.396-.07h-.877zm.344.276h.448c.062-.004.125.001.185.015.063 0 .123.02.174.055.048.024.09.059.122.101.036.056.053.123.049.19.003.068-.014.137-.05.195-.031.048-.073.089-.121.12l-.174.052c-.06.014-.123.02-.185.015h-.448v-.743z"/>
                </g>
            </g>
        </g>
    </g>
</svg>
