<svg xmlns="http://www.w3.org/2000/svg" width="28" height="28" viewBox="0 0 28 28">
    <g fill="none" fill-rule="evenodd">
        <g fill="#4D4D4D" fill-rule="nonzero">
            <g>
                <path d="M3.846 20.515c.94 0 1.701.762 1.701 1.701 0 .94-.761 1.7-1.7 1.7-.94 0-1.701-.76-1.701-1.7s.761-1.7 1.7-1.7zm20.803.496c.666 0 1.205.54 1.205 1.205 0 .621-.47 1.133-1.073 1.198l-.132.007H10.41c-.666 0-1.206-.54-1.206-1.205 0-.621.47-1.132 1.074-1.198l.131-.007H24.65zM3.846 12.299c.94 0 1.701.762 1.701 1.701 0 .94-.761 1.7-1.7 1.7-.94 0-1.701-.76-1.701-1.7s.761-1.7 1.7-1.7zm20.803.496c.666 0 1.205.54 1.205 1.205 0 .621-.47 1.133-1.073 1.198l-.132.007H10.41c-.666 0-1.206-.54-1.206-1.205 0-.621.47-1.133 1.074-1.198l.131-.007H24.65zM3.846 4.083c.94 0 1.701.762 1.701 1.701 0 .94-.761 1.7-1.7 1.7-.94 0-1.701-.76-1.701-1.7s.761-1.7 1.7-1.7zm20.803.496c.666 0 1.205.54 1.205 1.205 0 .621-.47 1.132-1.073 1.198l-.132.007H10.41c-.666 0-1.206-.54-1.206-1.205 0-.621.47-1.133 1.074-1.198l.131-.007H24.65z" transform="translate(-1188 -74) translate(1188 74)"/>
            </g>
        </g>
    </g>
</svg>
